<svg width="56" height="55" viewBox="0 0 56 55" fill="none" xmlns="http://www.w3.org/2000/svg">
<path d="M11.168 0C10.6133 0 10.168 0.445313 10.168 1V3.07031C10.168 3.625 10.6133 4.07031 11.168 4.07031C11.7188 4.07031 12.168 3.625 12.168 3.07031V1C12.168 0.445313 11.7188 0 11.168 0ZM4.30469 2.42969C4.04688 2.42969 3.79297 2.52734 3.59375 2.72266C3.20312 3.11328 3.20312 3.74609 3.59375 4.13672L5.0625 5.60156C5.25781 5.79688 5.51172 5.89453 5.76953 5.89453C6.02734 5.89453 6.28125 5.79688 6.47656 5.60156C6.86719 5.21094 6.86719 4.57812 6.47656 4.1875L5.00781 2.72266C4.8125 2.52734 4.55859 2.42969 4.30469 2.42969ZM18.0312 2.42969C17.7734 2.42969 17.5195 2.52734 17.3242 2.72266L15.8555 4.1875C15.4648 4.57812 15.4648 5.21094 15.8555 5.60156C16.0508 5.79688 16.3086 5.89453 16.5625 5.89453C16.8203 5.89453 17.0742 5.79688 17.2695 5.60156L18.7344 4.13672C19.1289 3.74609 19.1289 3.11328 18.7344 2.72266C18.5391 2.52734 18.2852 2.42969 18.0312 2.42969ZM10.9766 7.83203C10.3984 7.78125 9.82812 7.98828 9.39844 8.41797C8.82422 8.99219 8.65234 9.8125 8.95312 10.5664L25.0234 51.0664C25.3086 51.7852 25.9609 52.2656 26.7305 52.3242C27.4883 52.3789 28.2148 52.0117 28.6055 51.3477L35.3398 39.957L48.6797 53.3008C49.2461 53.8672 50 54.1836 50.8008 54.1836C51.6055 54.1836 52.3594 53.8711 52.9219 53.3008L54.3398 51.8906C55.5078 50.7188 55.5078 48.8125 54.3398 47.6445L41 34.3086L52.3242 27.625C52.9883 27.2305 53.3633 26.5156 53.3047 25.7461C53.2461 24.9766 52.7617 24.3281 52.0469 24.043L11.5508 7.97266C11.3633 7.89844 11.168 7.85156 10.9766 7.83203ZM1.875 9.29297C1.32031 9.29297 0.875 9.73828 0.875 10.293C0.875 10.8477 1.32031 11.293 1.875 11.293H3.94531C4.5 11.293 4.94531 10.8477 4.94531 10.293C4.94531 9.73828 4.5 9.29297 3.94531 9.29297H1.875ZM10.8125 9.82812L51.3086 25.9023L39.9844 32.582C39.4453 32.8984 39.0938 33.4375 39.0156 34.0547C38.9375 34.6719 39.1445 35.2812 39.5859 35.7188L52.9219 49.0586C53.3125 49.4492 53.3125 50.0859 52.9219 50.4727L51.5078 51.8906C51.1289 52.2695 50.4727 52.2695 50.0938 51.8906L36.75 38.5469C36.3711 38.1641 35.8711 37.957 35.3438 37.957C35.2578 37.957 35.1719 37.9648 35.0898 37.9727C34.4688 38.0508 33.9336 38.4062 33.6133 38.9414L26.8828 50.3281L10.8125 9.82812ZM5.76953 14.6875C5.51172 14.6914 5.25781 14.7891 5.0625 14.9844L3.59375 16.4492C3.20312 16.8398 3.20312 17.4688 3.59375 17.8594C3.78906 18.0547 4.04688 18.1562 4.30469 18.1562C4.55859 18.1562 4.81641 18.0547 5.00781 17.8594L6.47656 16.3945C6.86719 16.0039 6.86719 15.375 6.47656 14.9844C6.28125 14.7852 6.02734 14.6875 5.76953 14.6875ZM19.0312 15.4219C18.6406 15.4297 18.2734 15.668 18.125 16.0508C17.918 16.5664 18.1719 17.1484 18.6875 17.3516L21.832 18.6016C21.9531 18.6484 22.0781 18.6719 22.2031 18.6719C22.5977 18.6719 22.9766 18.4297 23.1289 18.0391C23.332 17.5234 23.082 16.9453 22.5703 16.7383L19.4219 15.4922C19.293 15.4414 19.1602 15.418 19.0312 15.4219ZM26.2383 18.2812C25.8477 18.293 25.4844 18.5312 25.332 18.9141C25.1289 19.4297 25.3789 20.0078 25.8945 20.2148L40.5898 26.0469C40.7109 26.0938 40.8359 26.1133 40.957 26.1133C41.3555 26.1133 41.7344 25.875 41.8906 25.4844C42.0938 24.9688 41.8398 24.3867 41.3281 24.1836L26.6289 18.3555C26.5 18.3008 26.3672 18.2812 26.2383 18.2812Z" fill="black"/>
</svg>
