<svg width="58" height="58" viewBox="0 0 58 58" fill="none" xmlns="http://www.w3.org/2000/svg">
<path d="M29 0C13.0078 0 0 13.0078 0 29C0 44.9922 13.0078 58 29 58C44.9922 58 58 44.9922 58 29C58 13.0078 44.9922 0 29 0ZM29 2C43.8867 2 56 14.1133 56 29C56 43.8867 43.8867 56 29 56C14.1133 56 2 43.8867 2 29C2 14.1133 14.1133 2 29 2ZM29 6C16.3164 6 6 16.3164 6 29C6 41.6836 16.3164 52 29 52C41.6836 52 52 41.6836 52 29C52 21.8945 48.793 15.3008 43.1992 10.9062C42.7656 10.5664 42.1406 10.6406 41.7969 11.0742C41.457 11.5078 41.5312 12.1367 41.9648 12.4805C47.0703 16.4922 50 22.5156 50 29C50 40.5781 40.5781 50 29 50C17.4219 50 8 40.5781 8 29C8 17.4219 17.4219 8 29 8C30.0273 8 31.0586 8.07422 32.0625 8.22266C32.6133 8.30469 33.1211 7.92578 33.1992 7.37891C33.2773 6.83203 32.9023 6.32422 32.3555 6.24219C31.2539 6.08203 30.125 6 29 6ZM36.5312 7.34375C36.1445 7.36328 35.7852 7.60938 35.6406 8C35.4531 8.51562 35.7188 9.08984 36.2383 9.28125C37.0195 9.56641 37.7969 9.91016 38.5469 10.293C38.6953 10.3672 38.8516 10.4023 39.0039 10.4023C39.3672 10.4023 39.7188 10.2031 39.8945 9.85547C40.1445 9.36328 39.9492 8.76172 39.457 8.51172C38.6367 8.08984 37.7852 7.71875 36.9258 7.40234C36.7969 7.35547 36.6641 7.33594 36.5312 7.34375ZM29 12C28.4492 12 28 12.4492 28 13V15C28 15.5508 28.4492 16 29 16C29.5508 16 30 15.5508 30 15V13C30 12.4492 29.5508 12 29 12ZM34.9805 13.168C34.5898 13.1719 34.2227 13.4062 34.0664 13.793L33.3164 15.6445C33.1094 16.1562 33.3555 16.7422 33.8711 16.9492C33.9922 16.9961 34.1211 17.0195 34.2461 17.0195C34.6406 17.0195 35.0156 16.7852 35.1719 16.3945L35.9219 14.5391C36.1289 14.0273 35.8789 13.4453 35.3672 13.2383C35.2383 13.1875 35.1094 13.1641 34.9805 13.168ZM40.0977 16.4883C39.8398 16.4961 39.5898 16.5977 39.3945 16.7969L38.0039 18.2344C37.6211 18.6328 37.6328 19.2656 38.0312 19.6484C38.2227 19.8359 38.4727 19.9297 38.7227 19.9297C38.9883 19.9297 39.2461 19.8242 39.4414 19.625L40.832 18.1875C41.2188 17.7891 41.207 17.1562 40.8125 16.7695C40.6133 16.5781 40.3555 16.4844 40.0977 16.4883ZM29 18C28.4492 18 28 18.4492 28 19V27.2773C27.4062 27.625 27 28.2617 27 29C27 30.1016 27.8984 31 29 31C29.1797 31 29.3477 30.9688 29.5117 30.9258L35.793 37.207C35.9883 37.4023 36.2422 37.5 36.5 37.5C36.7578 37.5 37.0117 37.4023 37.207 37.207C37.5977 36.8164 37.5977 36.1836 37.207 35.793L30.9258 29.5117C30.9688 29.3477 31 29.1797 31 29C31 28.2617 30.5938 27.625 30 27.2773V19C30 18.4492 29.5508 18 29 18ZM43.5977 21.4922C43.4688 21.4961 43.3359 21.5234 43.2109 21.5781L41.3828 22.3906C40.8789 22.6172 40.6523 23.207 40.875 23.7148C41.043 24.0859 41.4062 24.3086 41.7891 24.3086C41.9258 24.3086 42.0625 24.2773 42.1953 24.2188L44.0234 23.4062C44.5273 23.1797 44.7539 22.5898 44.5312 22.0859C44.3594 21.707 43.9883 21.4844 43.5977 21.4922ZM13 28C12.4492 28 12 28.4492 12 29C12 29.5508 12.4492 30 13 30H15C15.5508 30 16 29.5508 16 29C16 28.4492 15.5508 28 15 28H13ZM43 28C42.4492 28 42 28.4492 42 29C42 29.5508 42.4492 30 43 30H45C45.5508 30 46 29.5508 46 29C46 28.4492 45.5508 28 45 28H43ZM41.9648 33.2461C41.5742 33.25 41.207 33.4844 41.0508 33.8711C40.8477 34.3828 41.0938 34.9648 41.6055 35.1719L43.4609 35.9219C43.582 35.9727 43.7109 35.9961 43.832 35.9961C44.2305 35.9961 44.6055 35.7578 44.7617 35.3672C44.9688 34.8555 44.7227 34.2734 44.207 34.0664L42.3555 33.3164C42.2266 33.2656 42.0938 33.2422 41.9648 33.2461ZM39.0547 37.7227C38.8008 37.7305 38.543 37.832 38.3516 38.0312C38.1992 38.1875 38.1289 38.3867 38.0977 38.5859C37.9297 38.9531 37.9883 39.4023 38.293 39.707L39.6055 41.0195C39.8008 41.2148 40.0547 41.3125 40.3125 41.3125C40.5703 41.3125 40.8242 41.2148 41.0195 41.0195C41.0547 40.9844 41.0742 40.9336 41.1055 40.8945C41.1445 40.8633 41.1914 40.8477 41.2305 40.8086C41.6133 40.4102 41.6016 39.7773 41.2031 39.3945L39.7656 38.0039C39.5664 37.8125 39.3086 37.7188 39.0547 37.7227ZM29 42C28.4492 42 28 42.4492 28 43V45C28 45.5508 28.4492 46 29 46C29.5508 46 30 45.5508 30 45V43C30 42.4492 29.5508 42 29 42Z" fill="black"/>
</svg>
