<svg width="46" height="56" viewBox="0 0 46 56" fill="none" xmlns="http://www.w3.org/2000/svg">
<path d="M13.6562 0C12.3203 0 11.0664 0.519531 10.1211 1.46484L1.46484 10.1211C0.519531 11.0664 0 12.3203 0 13.6562V53C0 54.6523 1.34766 56 3 56H43C44.6523 56 46 54.6523 46 53V3C46 1.34766 44.6523 0 43 0H13.6562ZM14 2H43C43.5508 2 44 2.44922 44 3V53C44 53.5508 43.5508 54 43 54H3C2.44922 54 2 53.5508 2 53V14H11C12.6523 14 14 12.6523 14 11V2ZM12 2.5V11C12 11.5508 11.5508 12 11 12H2.5C2.60547 11.8359 2.73438 11.6797 2.87891 11.5352L11.5352 2.87891C11.6797 2.73828 11.8359 2.61328 12 2.5ZM12 20C9.79297 20 8 21.793 8 24C8 26.207 9.79297 28 12 28C14.207 28 16 26.207 16 24C16 21.793 14.207 20 12 20ZM12 21.75C13.2422 21.75 14.25 22.7578 14.25 24C14.25 25.2422 13.2422 26.25 12 26.25C10.7578 26.25 9.75 25.2422 9.75 24C9.75 22.7578 10.7578 21.75 12 21.75ZM29 26.4141C28.4883 26.4141 27.9766 26.6094 27.5859 27L21 33.5859L18.4141 31C17.6328 30.2188 16.3633 30.2188 15.5859 31L6.58594 40H5.04297C4.41797 40 4 40.3984 4 41C4 41.6016 4.52344 42 5.04297 42H40.9805C41.5 42 42.0234 41.6016 42.0234 41C42.0234 40.3984 41.5 40 40.9805 40H17.4141L29 28.4141L37.293 36.707C37.6836 37.0977 38.3164 37.0977 38.707 36.707C39.0977 36.3164 39.0977 35.6836 38.707 35.293L30.4141 27C30.0234 26.6094 29.5117 26.4141 29 26.4141ZM17 32.4141L19.5859 35L14.5859 40H9.41406L17 32.4141ZM5 48C4.44922 48 4 48.4492 4 49V51C4 51.5508 4.44922 52 5 52C5.55078 52 6 51.5508 6 51V49C6 48.4492 5.55078 48 5 48ZM10 48C9.44922 48 9 48.4492 9 49V51C9 51.5508 9.44922 52 10 52C10.5508 52 11 51.5508 11 51V49C11 48.4492 10.5508 48 10 48ZM15 48C14.4492 48 14 48.4492 14 49V51C14 51.5508 14.4492 52 15 52C15.5508 52 16 51.5508 16 51V49C16 48.4492 15.5508 48 15 48ZM20 48C19.4492 48 19 48.4492 19 49V51C19 51.5508 19.4492 52 20 52C20.5508 52 21 51.5508 21 51V49C21 48.4492 20.5508 48 20 48ZM25 48C24.4492 48 24 48.4492 24 49V51C24 51.5508 24.4492 52 25 52C25.5508 52 26 51.5508 26 51V49C26 48.4492 25.5508 48 25 48ZM30 48C29.4492 48 29 48.4492 29 49V51C29 51.5508 29.4492 52 30 52C30.5508 52 31 51.5508 31 51V49C31 48.4492 30.5508 48 30 48ZM35 48C34.4492 48 34 48.4492 34 49V51C34 51.5508 34.4492 52 35 52C35.5508 52 36 51.5508 36 51V49C36 48.4492 35.5508 48 35 48ZM40 48C39.4492 48 39 48.4492 39 49V51C39 51.5508 39.4492 52 40 52C40.5508 52 41 51.5508 41 51V49C41 48.4492 40.5508 48 40 48Z" fill="black"/>
</svg>
