<svg width="61" height="50" viewBox="0 0 61 50" fill="none" xmlns="http://www.w3.org/2000/svg">
<path d="M30.9961 0.015625C30.9336 0.015625 30.875 0.019531 30.8125 0.03125C30.75 0.046875 30.6875 0.0625 30.625 0.085938C30.5664 0.113281 30.5117 0.144531 30.4531 0.179688C30.4258 0.199219 30.3867 0.207031 30.3594 0.230469L18 10.4609V7.05859C18 6.50391 17.5547 6.05859 17 6.05859C16.4453 6.05859 16 6.50391 16 7.05859V12.0586C16 12.0742 16.0078 12.0898 16.0117 12.1094L14 13.7695V3.05469C14 2.50391 13.5547 2.05469 13 2.05469C12.4453 2.05469 12 2.50391 12 3.05469V15.0586C12 15.168 12.0312 15.2734 12.0625 15.375L1.35936 24.2305C0.933576 24.582 0.878888 25.2109 1.22654 25.6367C1.42576 25.875 1.71483 26 1.99998 26C2.22654 26 2.45311 25.9258 2.64061 25.7695L5.99998 22.9883V48H2.99998C2.44529 48 1.99998 48.4492 1.99998 49C1.99998 49.5508 2.44529 50 2.99998 50H59C59.5547 50 60 49.5508 60 49C60 48.4492 59.5547 48 59 48H56V22.9883L59.3594 25.7695C59.5469 25.9258 59.7734 26 60 26C60.2851 26 60.5703 25.875 60.7695 25.6406C61.1211 25.2109 61.0625 24.582 60.6367 24.2305L31.6367 0.230469C31.6094 0.207031 31.5742 0.199219 31.543 0.179688C31.4844 0.140625 31.4297 0.109375 31.3633 0.085938C31.3047 0.0625 31.25 0.046875 31.1875 0.03125C31.125 0.019531 31.0625 0.015625 30.9961 0.015625ZM31 2.29688L54 21.332V38H38V30C38 28.8984 37.1015 28 36 28H26C24.8984 28 24 28.8984 24 30V38H7.99998V21.332L31 2.29688ZM31 12C28.2422 12 26 14.2422 26 17C26 19.7578 28.2422 22 31 22C33.7578 22 36 19.7578 36 17C36 14.2422 33.7578 12 31 12ZM31 13.793C32.7695 13.793 34.207 15.2305 34.207 17C34.207 18.7695 32.7695 20.207 31 20.207C29.2305 20.207 27.793 18.7695 27.793 17C27.793 15.2305 29.2305 13.793 31 13.793ZM26 30H36V47.9492H26V30ZM33 37C32.4453 37 32 37.4492 32 38V40C32 40.5508 32.4453 41 33 41C33.5547 41 34 40.5508 34 40V38C34 37.4492 33.5547 37 33 37ZM7.99998 40H24V48H7.99998V40ZM38 40H54V48H38V40ZM11 42C10.4453 42 9.99998 42.4492 9.99998 43V45C9.99998 45.5508 10.4453 46 11 46C11.5547 46 12 45.5508 12 45V43C12 42.4492 11.5547 42 11 42ZM16 42C15.4453 42 15 42.4492 15 43V45C15 45.5508 15.4453 46 16 46C16.5547 46 17 45.5508 17 45V43C17 42.4492 16.5547 42 16 42ZM21 42C20.4453 42 20 42.4492 20 43V45C20 45.5508 20.4453 46 21 46C21.5547 46 22 45.5508 22 45V43C22 42.4492 21.5547 42 21 42ZM41 42C40.4453 42 40 42.4492 40 43V45C40 45.5508 40.4453 46 41 46C41.5547 46 42 45.5508 42 45V43C42 42.4492 41.5547 42 41 42ZM46 42C45.4453 42 45 42.4492 45 43V45C45 45.5508 45.4453 46 46 46C46.5547 46 47 45.5508 47 45V43C47 42.4492 46.5547 42 46 42ZM51 42C50.4453 42 50 42.4492 50 43V45C50 45.5508 50.4453 46 51 46C51.5547 46 52 45.5508 52 45V43C52 42.4492 51.5547 42 51 42Z" fill="black"/>
</svg>
