<svg width="52" height="62" viewBox="0 0 52 62" fill="none" xmlns="http://www.w3.org/2000/svg">
<path d="M25 0C14.5234 0 6 8.52344 6 19V26H3C1.34766 26 0 27.3477 0 29V59C0 60.6523 1.34766 62 3 62H49C50.6523 62 52 60.6523 52 59V29C52 27.3477 50.6523 26 49 26H14V19C14 12.9336 18.9336 8 25 8H27C33.0664 8 38 12.9336 38 19C38 20.6523 39.3477 22 41 22H43C44.6523 22 46 20.6523 46 19C46 8.52344 37.4766 0 27 0H25ZM25 2H27C27.3398 2 27.668 2.03125 28 2.05078V6.05078C27.668 6.02344 27.3398 6 27 6H25C24.6602 6 24.332 6.02344 24 6.05078V2.05078C24.332 2.03125 24.6602 2 25 2ZM22 2.28125V6.36328C16.2773 7.72266 12 12.8672 12 19V26H8V19C8 10.6523 14.0547 3.70312 22 2.28125ZM30 2.28125C37.9453 3.70312 44 10.6523 44 19C44 19.5508 43.5508 20 43 20H41C40.4492 20 40 19.5508 40 19C40 12.8672 35.7227 7.72266 30 6.36328V2.28125ZM3 28H49C49.5508 28 50 28.4492 50 29V59C50 59.5508 49.5508 60 49 60H3C2.44922 60 2 59.5508 2 59V29C2 28.4492 2.44922 28 3 28ZM26 32C20.4844 32 16 36.4844 16 42C16 47.5156 20.4844 52 26 52C31.5156 52 36 47.5156 36 42C36 36.4844 31.5156 32 26 32ZM26 34C30.4102 34 34 37.5898 34 42C34 46.4102 30.4102 50 26 50C21.5898 50 18 46.4102 18 42C18 37.5898 21.5898 34 26 34ZM26 35C25.4453 35 25 35.4492 25 36V37.832C25 38.3867 25.4453 38.832 26 38.832C26.5547 38.832 27 38.3828 27 37.832V36C27 35.4492 26.5547 35 26 35ZM21.8164 36.7344C21.5625 36.7344 21.3047 36.8281 21.1094 37.0273C20.7188 37.4141 20.7188 38.0469 21.1094 38.4375L22.4062 39.7344C22.5977 39.9297 22.8555 40.0312 23.1094 40.0312C23.3672 40.0312 23.625 39.9297 23.8164 39.7344C24.2109 39.3477 24.2109 38.7148 23.8164 38.3242L22.5234 37.0273C22.3281 36.8281 22.0703 36.7344 21.8164 36.7344ZM30.3008 36.7344C30.0469 36.7344 29.793 36.8281 29.5938 37.0273L28.2969 38.3242C27.9062 38.7109 27.9062 39.3438 28.2969 39.7344C28.4922 39.9336 28.75 40.0312 29.0039 40.0312C29.2617 40.0312 29.5195 39.9297 29.7148 39.7344L31.0117 38.4375C31.4023 38.0508 31.4023 37.418 31.0117 37.0273C30.8125 36.8281 30.5586 36.7344 30.3008 36.7344ZM20 41C19.4453 41 19 41.4492 19 42C19 42.5508 19.4453 43 20 43H21.832C22.3867 43 22.832 42.5508 22.832 42C22.832 41.4492 22.3867 41 21.832 41H20ZM30.168 41C29.6133 41 29.168 41.4492 29.168 42C29.168 42.5508 29.6133 43 30.168 43H32C32.5547 43 33 42.5508 33 42C33 41.4492 32.5547 41 32 41H30.168ZM28.8906 43.8047C28.6328 43.8047 28.3789 43.9023 28.1836 44.0977C27.7891 44.4883 27.7891 45.1211 28.1836 45.5117L29.4766 46.8086C29.6719 47.0039 29.9258 47.1016 30.1836 47.1016C30.4414 47.1016 30.6953 47.0039 30.8906 46.8086C31.2812 46.418 31.2812 45.7852 30.8906 45.3945L29.5938 44.0977C29.3984 43.9023 29.1445 43.8047 28.8906 43.8047ZM23.1133 43.9219C22.8555 43.9219 22.6016 44.0195 22.4062 44.2148L21.1094 45.5117C20.7188 45.9023 20.7188 46.5352 21.1094 46.9258C21.3047 47.1211 21.5586 47.2188 21.8164 47.2188C22.0742 47.2188 22.3281 47.1211 22.5234 46.9258L23.8164 45.6289C24.2109 45.2383 24.2109 44.6055 23.8164 44.2148C23.625 44.0195 23.3711 43.9219 23.1133 43.9219ZM26 45C25.4453 45 25 45.4492 25 46V47.832C25 48.3867 25.4453 48.832 26 48.832C26.5547 48.832 27 48.3828 27 47.832V46C27 45.4492 26.5547 45 26 45ZM5 56C4.44531 56 4 56.4492 4 57C4 57.5508 4.44531 58 5 58H39C39.5547 58 40 57.5508 40 57C40 56.4492 39.5547 56 39 56H5ZM43 56C42.4453 56 42 56.4492 42 57C42 57.5508 42.4453 58 43 58H47C47.5547 58 48 57.5508 48 57C48 56.4492 47.5547 56 47 56H43Z" fill="black"/>
</svg>
