<svg width="56" height="60" viewBox="0 0 56 60" fill="none" xmlns="http://www.w3.org/2000/svg">
<path d="M12 0C6.89062 0 2.91797 1.73047 2.14844 4.14062C0.910156 4.50781 0 5.64453 0 7V13.1758C0 17.125 0.742188 20.9883 2.20312 24.6562L7.56641 38.1094C7.98047 39.1445 8.91406 39.8438 10 39.9727V47C10 48.6523 11.3477 50 13 50H14V54.1836C12.8398 54.5977 12 55.6992 12 57C12 58.6523 13.3477 60 15 60H23C24.6523 60 26 58.6523 26 57C26 55.6992 25.1602 54.5977 24 54.1836V50H32V54.1836C30.8398 54.5977 30 55.6992 30 57C30 58.6523 31.3477 60 33 60H41C42.6523 60 44 58.6523 44 57C44 55.6992 43.1602 54.5977 42 54.1836V50H43C44.6523 50 46 48.6523 46 47V39.9727C47.0859 39.8438 48.0195 39.1484 48.4336 38.1094L53.7969 24.6562C55.2578 20.9922 56 17.125 56 13.1758V7C56 5.64453 55.0898 4.50781 53.8555 4.14062C53.082 1.73047 49.1094 0 44 0C38.8906 0 34.918 1.73047 34.1445 4.14062C32.9102 4.50781 32 5.64453 32 7V22H29V20C29.5547 20 30 19.5508 30 19C30 18.4492 29.5547 18 29 18H27C26.4453 18 26 18.4492 26 19C26 19.5508 26.4453 20 27 20V22H24V7C24 5.64453 23.0898 4.50781 21.8555 4.14062C21.082 1.73047 17.1094 0 12 0ZM12 2C15.6445 2 18.3047 2.98828 19.418 4H4.58203C5.69531 2.98828 8.35547 2 12 2ZM44 2C47.6445 2 50.3047 2.98828 51.418 4H36.582C37.6953 2.98828 40.3555 2 44 2ZM3 6H21C21.5508 6 22 6.44922 22 7V8H2V7C2 6.44922 2.44922 6 3 6ZM35 6H53C53.5508 6 54 6.44922 54 7V8H34V7C34 6.44922 34.4492 6 35 6ZM2 10H22V38H10.3555C9.94531 38 9.57812 37.7539 9.42578 37.3711L4.0625 23.918C2.69531 20.4883 2 16.8711 2 13.1758V10ZM34 10H54V13.1758C54 16.8711 53.3047 20.4883 51.9375 23.918L46.5742 37.3711C46.4219 37.7539 46.0547 38 45.6445 38H34V10ZM24 24H32V38H24V24ZM12 40H44V47C44 47.5508 43.5508 48 43 48H13C12.4492 48 12 47.5508 12 47V40ZM15 42C14.4453 42 14 42.4492 14 43V45C14 45.5508 14.4453 46 15 46C15.5547 46 16 45.5508 16 45V43C16 42.4492 15.5547 42 15 42ZM20 42C19.4453 42 19 42.4492 19 43V45C19 45.5508 19.4453 46 20 46C20.5547 46 21 45.5508 21 45V43C21 42.4492 20.5547 42 20 42ZM25 42C24.4453 42 24 42.4492 24 43V45C24 45.5508 24.4453 46 25 46C25.5547 46 26 45.5508 26 45V43C26 42.4492 25.5547 42 25 42ZM31 42C30.4453 42 30 42.4492 30 43V45C30 45.5508 30.4453 46 31 46C31.5547 46 32 45.5508 32 45V43C32 42.4492 31.5547 42 31 42ZM36 42C35.4453 42 35 42.4492 35 43V45C35 45.5508 35.4453 46 36 46C36.5547 46 37 45.5508 37 45V43C37 42.4492 36.5547 42 36 42ZM41 42C40.4453 42 40 42.4492 40 43V45C40 45.5508 40.4453 46 41 46C41.5547 46 42 45.5508 42 45V43C42 42.4492 41.5547 42 41 42ZM16 50H22V54H16V50ZM34 50H40V54H34V50ZM15 56H23C23.5508 56 24 56.4492 24 57C24 57.5508 23.5508 58 23 58H15C14.4492 58 14 57.5508 14 57C14 56.4492 14.4492 56 15 56ZM33 56H41C41.5508 56 42 56.4492 42 57C42 57.5508 41.5508 58 41 58H33C32.4492 58 32 57.5508 32 57C32 56.4492 32.4492 56 33 56Z" fill="black"/>
</svg>
