<svg width="60" height="62" viewBox="0 0 60 62" fill="none" xmlns="http://www.w3.org/2000/svg">
<path d="M28.8242 0C20.8008 0 13.9766 5.46875 12.2305 13.2969L9.78125 24.2695C9.27344 26.5312 8.375 28.6562 7.10156 30.5898L5.4375 33.1094C4.94531 33.8594 4.8125 34.7812 5.07422 35.6367C5.33984 36.4961 5.96875 37.1914 6.80469 37.5352C8.09766 38.0742 9.55859 38.5703 11.1484 39.0352L6.25781 41.3789C2.45703 43.1953 0 47.0898 0 51.3008V59C0 60.6523 1.34766 62 3 62H57C58.6523 62 60 60.6523 60 59V51.3008C60 47.0898 57.5469 43.1953 53.7461 41.3789L48.8086 39.0156C50.4258 38.5508 51.9062 38.0586 53.1992 37.5312C54.0273 37.1875 54.6562 36.5039 54.9258 35.6445C55.1914 34.7852 55.0625 33.8594 54.5703 33.1094L52.7109 30.2617C51.4766 28.375 50.5977 26.3047 50.0938 24.1094L47.8242 14.2031C46.1367 6.84766 39.75 1.47266 32.2305 1.04297C31.207 0.359375 30.0352 0 28.8242 0ZM28.8242 2C29.707 2 30.5625 2.28516 31.2969 2.82812C31.457 2.94922 31.6523 3.01953 31.8516 3.02344C38.5977 3.29297 44.3672 8.07422 45.875 14.6484L48.1445 24.5547C48.7031 26.9844 49.6758 29.2695 51.0352 31.3555L52.8945 34.1992C53.0625 34.4531 53.1055 34.7617 53.0156 35.0508C52.9648 35.2188 52.8203 35.5234 52.4375 35.6758C50.6523 36.4102 48.4922 37.082 46.0312 37.6875L40.4844 35.0352C41.5508 33.3789 42.418 31.5625 43.0156 29.7344C44.2422 29.2734 45.3633 27.7734 45.8984 25.7773C46.2148 24.5977 46.2773 23.4102 46.0781 22.4336C45.8281 21.2148 45.1953 20.4102 44.2969 20.1719C44.1719 20.1367 44.0234 20.1094 43.8555 20.1055C43.7461 19.3047 43.5703 18.5156 43.3281 17.75C43.1562 17.2227 42.5977 16.9297 42.0703 17.0977C41.543 17.2656 41.2539 17.8281 41.4219 18.3555C41.7344 19.3477 41.9219 20.3828 41.9688 21.4336C41.9883 21.7891 42.1953 22.1133 42.5117 22.2773C42.832 22.4375 43.2109 22.4219 43.5117 22.2227C43.6914 22.1094 43.7812 22.1055 43.7773 22.1055C43.832 22.1211 44.0117 22.3242 44.1172 22.832C44.2539 23.5039 44.1992 24.3867 43.9688 25.2617C43.4727 27.1016 42.5273 27.8789 42.2344 27.8789C41.793 27.8789 41.4023 28.1719 41.2773 28.5938C39.5898 34.2617 35.1797 40 30 40C24.8203 40 20.4102 34.2617 18.7227 28.5938C18.5977 28.1719 18.2109 27.8789 17.7656 27.8789C17.4727 27.8789 16.5273 27.1016 16.0352 25.2617C15.8008 24.3867 15.7461 23.5039 15.8828 22.832C15.9883 22.3242 16.1719 22.1172 16.2188 22.1055C16.2188 22.1055 16.3047 22.1055 16.4883 22.2227C16.7891 22.418 17.168 22.4375 17.4883 22.2773C17.8047 22.1133 18.0156 21.793 18.0312 21.4336C18.0781 20.3906 18.2617 19.3594 18.5781 18.3711C18.7422 17.8438 18.4492 17.2773 17.9219 17.1133C17.3984 16.9414 16.8359 17.2383 16.6719 17.7656C16.4297 18.5312 16.25 19.3125 16.1445 20.1055C15.9766 20.1133 15.832 20.1367 15.707 20.1719C14.8047 20.4102 14.1719 21.2148 13.9219 22.4336C13.7227 23.4102 13.7891 24.5977 14.1055 25.7773C14.6367 27.7734 15.7617 29.2734 16.9844 29.7344C17.5859 31.5625 18.4492 33.3789 19.5195 35.0352L13.9102 37.7188C11.5039 37.1172 9.36719 36.4375 7.57031 35.6875C7.28906 35.5742 7.07422 35.3398 6.98438 35.0508C6.93359 34.8828 6.88281 34.5508 7.10938 34.207L8.76953 31.6875C10.1758 29.5469 11.1758 27.1992 11.7344 24.7031L14.1836 13.7305C15.7227 6.82422 21.7461 2 28.8242 2ZM24.1719 12.125C23.582 12.1797 23.0234 12.4961 22.6836 13.0156L21.0781 15.4492C20.7734 15.9102 20.9023 16.5312 21.3633 16.8359C21.5312 16.9453 21.7227 17 21.9102 17C22.2383 17 22.5547 16.8438 22.75 16.5508L24.3516 14.1172L25.9141 14.8789C28.7617 16.2695 31.9414 17 35.1133 17H37.668C38.2188 17 38.668 16.5547 38.668 16C38.668 15.4453 38.2188 15 37.668 15H35.1133C32.2461 15 29.3672 14.3359 26.793 13.0781L25.2266 12.3164C24.8867 12.1523 24.5234 12.0938 24.1719 12.125ZM39.2969 36.6875L52.8828 43.1836C55.9922 44.6719 58 47.8555 58 51.3008V59C58 59.5508 57.5508 60 57 60H3C2.44922 60 2 59.5508 2 59V51.3008C2 47.8594 4.00781 44.668 7.11719 43.1836L20.7031 36.6875C23.1602 39.7891 26.4023 42 30 42C33.5977 42 36.8398 39.7891 39.2969 36.6875ZM20.1406 42.0117C19.7539 41.9531 19.3555 42.1289 19.1406 42.4844C18.8594 42.9609 19.0117 43.5742 19.4844 43.8594L29.4844 49.8594C29.6445 49.9531 29.8203 50 30 50C30.1797 50 30.3555 49.9531 30.5156 49.8594L40.5156 43.8594C40.9883 43.5742 41.1406 42.957 40.8594 42.4844C40.5742 42.0117 39.9609 41.8594 39.4844 42.1406L30 47.832L20.5156 42.1406C20.3984 42.0703 20.2695 42.0273 20.1406 42.0117ZM30 52C29.4492 52 29 52.4453 29 53V57C29 57.5547 29.4492 58 30 58C30.5508 58 31 57.5547 31 57V53C31 52.4453 30.5508 52 30 52ZM5 54C4.44922 54 4 54.4453 4 55V57C4 57.5547 4.44922 58 5 58C5.55078 58 6 57.5547 6 57V55C6 54.4453 5.55078 54 5 54ZM10 54C9.44922 54 9 54.4453 9 55V57C9 57.5547 9.44922 58 10 58C10.5508 58 11 57.5547 11 57V55C11 54.4453 10.5508 54 10 54ZM15 54C14.4492 54 14 54.4453 14 55V57C14 57.5547 14.4492 58 15 58C15.5508 58 16 57.5547 16 57V55C16 54.4453 15.5508 54 15 54ZM20 54C19.4492 54 19 54.4453 19 55V57C19 57.5547 19.4492 58 20 58C20.5508 58 21 57.5547 21 57V55C21 54.4453 20.5508 54 20 54ZM25 54C24.4492 54 24 54.4453 24 55V57C24 57.5547 24.4492 58 25 58C25.5508 58 26 57.5547 26 57V55C26 54.4453 25.5508 54 25 54ZM35 54C34.4492 54 34 54.4453 34 55V57C34 57.5547 34.4492 58 35 58C35.5508 58 36 57.5547 36 57V55C36 54.4453 35.5508 54 35 54ZM40 54C39.4492 54 39 54.4453 39 55V57C39 57.5547 39.4492 58 40 58C40.5508 58 41 57.5547 41 57V55C41 54.4453 40.5508 54 40 54ZM45 54C44.4492 54 44 54.4453 44 55V57C44 57.5547 44.4492 58 45 58C45.5508 58 46 57.5547 46 57V55C46 54.4453 45.5508 54 45 54ZM50 54C49.4492 54 49 54.4453 49 55V57C49 57.5547 49.4492 58 50 58C50.5508 58 51 57.5547 51 57V55C51 54.4453 50.5508 54 50 54ZM55 54C54.4492 54 54 54.4453 54 55V57C54 57.5547 54.4492 58 55 58C55.5508 58 56 57.5547 56 57V55C56 54.4453 55.5508 54 55 54Z" fill="black"/>
</svg>
